# xmcd
#
# Track frame offsets:
#	150
#	15518
#	33955
#	47760
#	59701
#	74242
#	88171
#	101994
#	117077
#	130695
#	143547
#	157283
#	167497
#
# Disc length: 2382 seconds
#
# Revision: 0
# Processed by: cddbd v1.5.2PL0 Copyright (c) Steve Scherf et al.
# Submitted via: EasyCDDAExtractor 16.0.9.1
#
DISCID=b9094c0d
DTITLE=Leo Santana e Parangolé - Diferenciado
DYEAR=2013
DGENRE=Pagode
TTITLE0=Me domina
TTITLE1=Remexa
TTITLE2=Conselho de amigo
TTITLE3=Sossego
TTITLE4=Pretinho top
TTITLE5=Arrastadinho
TTITLE6=Bole
TTITLE7=Panorama da cidade
TTITLE8=Hey psiu
TTITLE9=Empurra empurra
TTITLE10=Mergulha na sua onda
TTITLE11=Estilo ls
TTITLE12=Tchubarabadá
EXTD=
EXTT0=
EXTT1=
EXTT2=
EXTT3=
EXTT4=
EXTT5=
EXTT6=
EXTT7=
EXTT8=
EXTT9=
EXTT10=
EXTT11=
EXTT12=
PLAYORDER=
